<svg width="67" height="11" viewBox="0 0 67 11" fill="none" xmlns="http://www.w3.org/2000/svg">
<path d="M4.608 8.794C5.004 8.794 5.352 8.788 5.652 8.776C5.964 8.752 6.222 8.716 6.426 8.668V5.878C6.306 5.818 6.108 5.77 5.832 5.734C5.568 5.686 5.244 5.662 4.86 5.662C4.608 5.662 4.338 5.68 4.05 5.716C3.774 5.752 3.516 5.83 3.276 5.95C3.048 6.058 2.856 6.214 2.7 6.418C2.544 6.61 2.466 6.868 2.466 7.192C2.466 7.792 2.658 8.212 3.042 8.452C3.426 8.68 3.948 8.794 4.608 8.794ZM4.464 0.405999C5.136 0.405999 5.7 0.495999 6.156 0.676C6.624 0.844 6.996 1.09 7.272 1.414C7.56 1.726 7.764 2.104 7.884 2.548C8.004 2.98 8.064 3.46 8.064 3.988V9.838C7.92 9.862 7.716 9.898 7.452 9.946C7.2 9.982 6.912 10.018 6.588 10.054C6.264 10.09 5.91 10.12 5.526 10.144C5.154 10.18 4.782 10.198 4.41 10.198C3.882 10.198 3.396 10.144 2.952 10.036C2.508 9.928 2.124 9.76 1.8 9.532C1.476 9.292 1.224 8.98 1.044 8.596C0.864 8.212 0.774 7.75 0.774 7.21C0.774 6.694 0.876 6.25 1.08 5.878C1.296 5.506 1.584 5.206 1.944 4.978C2.304 4.75 2.724 4.582 3.204 4.474C3.684 4.366 4.188 4.312 4.716 4.312C4.884 4.312 5.058 4.324 5.238 4.348C5.418 4.36 5.586 4.384 5.742 4.42C5.91 4.444 6.054 4.468 6.174 4.492C6.294 4.516 6.378 4.534 6.426 4.546V4.078C6.426 3.802 6.396 3.532 6.336 3.268C6.276 2.992 6.168 2.752 6.012 2.548C5.856 2.332 5.64 2.164 5.364 2.044C5.1 1.912 4.752 1.846 4.32 1.846C3.768 1.846 3.282 1.888 2.862 1.972C2.454 2.044 2.148 2.122 1.944 2.206L1.746 0.819999C1.962 0.724 2.322 0.634 2.826 0.549999C3.33 0.453999 3.876 0.405999 4.464 0.405999ZM10.8443 0.91C11.2283 0.814 11.7383 0.712 12.3743 0.604C13.0103 0.496 13.7423 0.442 14.5703 0.442C15.3143 0.442 15.9323 0.55 16.4243 0.766C16.9163 0.97 17.3063 1.264 17.5943 1.648C17.8943 2.02 18.1043 2.47 18.2243 2.998C18.3443 3.526 18.4043 4.108 18.4043 4.744V10H16.7303V5.104C16.7303 4.528 16.6883 4.036 16.6043 3.628C16.5323 3.22 16.4063 2.89 16.2263 2.638C16.0463 2.386 15.8063 2.206 15.5063 2.098C15.2063 1.978 14.8343 1.918 14.3903 1.918C14.2103 1.918 14.0243 1.924 13.8323 1.936C13.6403 1.948 13.4543 1.966 13.2743 1.99C13.1063 2.002 12.9503 2.02 12.8063 2.044C12.6743 2.068 12.5783 2.086 12.5183 2.098V10H10.8443V0.91ZM23.3582 8.794C24.0422 8.794 24.5462 8.704 24.8702 8.524C25.2062 8.344 25.3742 8.056 25.3742 7.66C25.3742 7.252 25.2122 6.928 24.8882 6.688C24.5642 6.448 24.0302 6.178 23.2862 5.878C22.9262 5.734 22.5782 5.59 22.2422 5.446C21.9182 5.29 21.6362 5.11 21.3962 4.906C21.1562 4.702 20.9642 4.456 20.8202 4.168C20.6762 3.88 20.6042 3.526 20.6042 3.106C20.6042 2.278 20.9102 1.624 21.5222 1.144C22.1342 0.651999 22.9682 0.405999 24.0242 0.405999C24.2882 0.405999 24.5522 0.423999 24.8162 0.459999C25.0802 0.484 25.3262 0.52 25.5542 0.567999C25.7822 0.603999 25.9802 0.646 26.1482 0.694C26.3282 0.742 26.4662 0.784 26.5622 0.819999L26.2562 2.26C26.0762 2.164 25.7942 2.068 25.4102 1.972C25.0262 1.864 24.5642 1.81 24.0242 1.81C23.5562 1.81 23.1482 1.906 22.8002 2.098C22.4522 2.278 22.2782 2.566 22.2782 2.962C22.2782 3.166 22.3142 3.346 22.3862 3.502C22.4702 3.658 22.5902 3.802 22.7462 3.934C22.9142 4.054 23.1182 4.168 23.3582 4.276C23.5982 4.384 23.8862 4.498 24.2222 4.618C24.6662 4.786 25.0622 4.954 25.4102 5.122C25.7582 5.278 26.0522 5.464 26.2922 5.68C26.5442 5.896 26.7362 6.16 26.8682 6.472C27.0002 6.772 27.0662 7.144 27.0662 7.588C27.0662 8.452 26.7422 9.106 26.0942 9.55C25.4582 9.994 24.5462 10.216 23.3582 10.216C22.5302 10.216 21.8822 10.144 21.4142 10C20.9462 9.868 20.6282 9.766 20.4602 9.694L20.7662 8.254C20.9582 8.326 21.2642 8.434 21.6842 8.578C22.1042 8.722 22.6622 8.794 23.3582 8.794ZM36.8634 10C36.5274 9.136 36.1674 8.152 35.7834 7.048C35.4114 5.932 35.0694 4.774 34.7574 3.574C34.4454 4.774 34.1034 5.932 33.7314 7.048C33.3594 8.152 33.0054 9.136 32.6694 10H31.2114C30.6594 8.764 30.1194 7.354 29.5914 5.77C29.0634 4.186 28.5654 2.476 28.0974 0.639999H29.8974C30.0174 1.204 30.1614 1.816 30.3294 2.476C30.4974 3.136 30.6714 3.796 30.8514 4.456C31.0434 5.116 31.2414 5.752 31.4454 6.364C31.6494 6.976 31.8414 7.51 32.0214 7.966C32.2254 7.402 32.4234 6.808 32.6154 6.184C32.8194 5.548 33.0114 4.912 33.1914 4.276C33.3714 3.628 33.5394 2.998 33.6954 2.386C33.8634 1.762 34.0074 1.18 34.1274 0.639999H35.5134C35.6214 1.18 35.7534 1.762 35.9094 2.386C36.0654 2.998 36.2334 3.628 36.4134 4.276C36.5934 4.912 36.7794 5.548 36.9714 6.184C37.1754 6.808 37.3794 7.402 37.5834 7.966C37.7634 7.51 37.9494 6.976 38.1414 6.364C38.3454 5.752 38.5434 5.116 38.7354 4.456C38.9274 3.796 39.1074 3.136 39.2754 2.476C39.4434 1.816 39.5874 1.204 39.7074 0.639999H41.4354C40.9674 2.476 40.4694 4.186 39.9414 5.77C39.4134 7.354 38.8734 8.764 38.3214 10H36.8634ZM42.6836 5.338C42.6836 4.51 42.8036 3.79 43.0436 3.178C43.2836 2.554 43.6016 2.038 43.9976 1.63C44.3936 1.222 44.8496 0.916 45.3656 0.711999C45.8816 0.507999 46.4096 0.405999 46.9496 0.405999C48.2096 0.405999 49.1756 0.801999 49.8476 1.594C50.5196 2.374 50.8556 3.568 50.8556 5.176C50.8556 5.248 50.8556 5.344 50.8556 5.464C50.8556 5.572 50.8496 5.674 50.8376 5.77H44.4296C44.5016 6.742 44.7836 7.48 45.2756 7.984C45.7676 8.488 46.5356 8.74 47.5796 8.74C48.1676 8.74 48.6596 8.692 49.0556 8.596C49.4636 8.488 49.7696 8.386 49.9736 8.29L50.2076 9.694C50.0036 9.802 49.6436 9.916 49.1276 10.036C48.6236 10.156 48.0476 10.216 47.3996 10.216C46.5836 10.216 45.8756 10.096 45.2756 9.856C44.6876 9.604 44.2016 9.262 43.8176 8.83C43.4336 8.398 43.1456 7.888 42.9536 7.3C42.7736 6.7 42.6836 6.046 42.6836 5.338ZM49.1096 4.42C49.1216 3.664 48.9296 3.046 48.5336 2.566C48.1496 2.074 47.6156 1.828 46.9316 1.828C46.5476 1.828 46.2056 1.906 45.9056 2.062C45.6176 2.206 45.3716 2.398 45.1676 2.638C44.9636 2.878 44.8016 3.154 44.6816 3.466C44.5736 3.778 44.5016 4.096 44.4656 4.42H49.1096ZM56.7163 0.442C56.8603 0.442 57.0223 0.454 57.2023 0.477999C57.3943 0.49 57.5803 0.514 57.7603 0.549999C57.9403 0.574 58.1023 0.604 58.2463 0.639999C58.4023 0.664 58.5163 0.688 58.5883 0.711999L58.3003 2.17C58.1683 2.122 57.9463 2.068 57.6343 2.008C57.3343 1.936 56.9443 1.9 56.4643 1.9C56.1523 1.9 55.8403 1.936 55.5283 2.008C55.2283 2.068 55.0303 2.11 54.9343 2.134V10H53.2603V1.036C53.6563 0.891999 54.1483 0.759999 54.7363 0.639999C55.3243 0.508 55.9843 0.442 56.7163 0.442ZM62.3817 8.794C63.0657 8.794 63.5697 8.704 63.8937 8.524C64.2297 8.344 64.3977 8.056 64.3977 7.66C64.3977 7.252 64.2357 6.928 63.9117 6.688C63.5877 6.448 63.0537 6.178 62.3097 5.878C61.9497 5.734 61.6017 5.59 61.2657 5.446C60.9417 5.29 60.6597 5.11 60.4197 4.906C60.1797 4.702 59.9877 4.456 59.8437 4.168C59.6997 3.88 59.6277 3.526 59.6277 3.106C59.6277 2.278 59.9337 1.624 60.5457 1.144C61.1577 0.651999 61.9917 0.405999 63.0477 0.405999C63.3117 0.405999 63.5757 0.423999 63.8397 0.459999C64.1037 0.484 64.3497 0.52 64.5777 0.567999C64.8057 0.603999 65.0037 0.646 65.1717 0.694C65.3517 0.742 65.4897 0.784 65.5857 0.819999L65.2797 2.26C65.0997 2.164 64.8177 2.068 64.4337 1.972C64.0497 1.864 63.5877 1.81 63.0477 1.81C62.5797 1.81 62.1717 1.906 61.8237 2.098C61.4757 2.278 61.3017 2.566 61.3017 2.962C61.3017 3.166 61.3377 3.346 61.4097 3.502C61.4937 3.658 61.6137 3.802 61.7697 3.934C61.9377 4.054 62.1417 4.168 62.3817 4.276C62.6217 4.384 62.9097 4.498 63.2457 4.618C63.6897 4.786 64.0857 4.954 64.4337 5.122C64.7817 5.278 65.0757 5.464 65.3157 5.68C65.5677 5.896 65.7597 6.16 65.8917 6.472C66.0237 6.772 66.0897 7.144 66.0897 7.588C66.0897 8.452 65.7657 9.106 65.1177 9.55C64.4817 9.994 63.5697 10.216 62.3817 10.216C61.5537 10.216 60.9057 10.144 60.4377 10C59.9697 9.868 59.6517 9.766 59.4837 9.694L59.7897 8.254C59.9817 8.326 60.2877 8.434 60.7077 8.578C61.1277 8.722 61.6857 8.794 62.3817 8.794Z" fill="white"/>
</svg>
