<svg width="89" height="23" viewBox="0 0 89 23" fill="none" xmlns="http://www.w3.org/2000/svg">
<path fill-rule="evenodd" clip-rule="evenodd" d="M19.094 0.946747H2.89525C1.2937 0.946747 0 2.24136 0 3.83466V20.0416C0 21.6423 1.30103 22.936 2.89525 22.936H19.094C20.6946 22.936 21.9892 21.6359 21.9892 20.0416V3.84199C21.9892 2.24136 20.6882 0.946747 19.094 0.946747ZM13.3741 4.99282V5.74686C13.3741 5.8339 13.2944 5.89346 13.2137 5.8733C12.6063 5.70655 11.9777 5.62043 11.3428 5.62043C10.6875 5.61977 10.0355 5.71169 9.40593 5.89346C9.31889 5.91362 9.23918 5.85314 9.23918 5.76702V4.99282C9.23937 4.73976 9.34005 4.49714 9.51907 4.31828C9.6981 4.13943 9.94081 4.03899 10.1939 4.03904H12.4194C12.6724 4.03899 12.9151 4.13943 13.0942 4.31828C13.2732 4.49714 13.3739 4.73976 13.3741 4.99282ZM6.89458 6.3534L7.27481 6.73363C7.32795 6.7941 7.32135 6.88756 7.25465 6.92787C6.94801 7.14823 6.65996 7.39338 6.39341 7.66084C6.12908 7.92639 5.88556 8.21187 5.66501 8.51476C5.61187 8.57431 5.52483 8.58806 5.46436 8.5285L5.09055 8.15468C5.00171 8.06638 4.9312 7.96139 4.88309 7.84574C4.83498 7.73009 4.81021 7.60606 4.81021 7.48081C4.81021 7.35555 4.83498 7.23152 4.88309 7.11587C4.9312 7.00022 5.00171 6.89523 5.09055 6.80693L5.54499 6.3534C5.63358 6.26475 5.73878 6.19442 5.85456 6.14643C5.97035 6.09845 6.09445 6.07375 6.21978 6.07375C6.34511 6.07375 6.46922 6.09845 6.585 6.14643C6.70079 6.19442 6.80598 6.26475 6.89458 6.3534ZM11.3362 12.3894V9.12771C11.3362 9.05441 11.4031 9.00127 11.47 9.00127C12.7591 9.048 13.8751 9.76814 14.4761 10.8227C14.5091 10.8887 14.4889 10.9693 14.4229 11.0023L11.5231 12.5031C11.437 12.5498 11.3362 12.4829 11.3362 12.3894ZM6.95395 12.6093C6.95395 15.0236 8.91832 16.9852 11.3362 16.9852C13.7616 16.9852 15.7187 15.0236 15.7187 12.6093C15.7187 10.1951 13.755 8.2344 11.3362 8.2344C8.91832 8.2344 6.95395 10.1951 6.95395 12.6093ZM5.11693 12.6093C5.11693 9.17535 7.90223 6.39371 11.3362 6.39371C14.7766 6.39371 17.5555 9.16802 17.5555 12.6029C17.5555 16.0378 14.7702 18.8195 11.3362 18.8195C7.90223 18.8195 5.11693 16.0442 5.11693 12.6093Z" fill="white"/>
<path fill-rule="evenodd" clip-rule="evenodd" d="M43.8957 18.3879C39.6142 18.408 39.6142 14.9328 39.6142 14.3794L39.6069 1.36088L42.2189 0.946747V13.8856C42.2189 14.1998 42.2189 16.1871 43.8955 16.1935V18.3879H43.8957ZM33.3079 16.2604C34.1094 16.2604 34.7042 16.2137 35.1184 16.134V13.4797C34.9116 13.4247 34.7017 13.3822 34.4898 13.3523C34.1892 13.3077 33.8856 13.2854 33.5817 13.2854C33.294 13.2854 32.9999 13.3056 32.7067 13.3523C32.4126 13.3926 32.145 13.4724 31.9114 13.586C31.6778 13.6996 31.4835 13.8599 31.3434 14.0661C31.1968 14.2731 31.1299 14.3932 31.1299 14.7065C31.1299 15.3195 31.3434 15.674 31.7309 15.9067C32.1185 16.1404 32.6462 16.2604 33.3079 16.2604ZM33.0807 6.78947C33.9419 6.78947 34.6701 6.89666 35.2584 7.11014C35.8458 7.32362 36.3204 7.62323 36.6675 8.00346C37.0221 8.3901 37.2621 8.9041 37.4089 9.45108C37.5628 9.99806 37.6361 10.5982 37.6361 11.2579V17.9682C37.2357 18.0544 36.6272 18.1542 35.8129 18.2743C34.9982 18.3943 34.083 18.4548 33.0668 18.4548C32.3924 18.4548 31.7712 18.3879 31.2169 18.2614C30.6553 18.135 30.1816 17.9279 29.7803 17.6411C29.3863 17.3544 29.0794 16.987 28.8522 16.5344C28.6314 16.0799 28.5177 15.4404 28.5177 14.7734C28.5177 14.1329 28.6442 13.7262 28.8925 13.2854C29.1454 12.8457 29.4862 12.4856 29.9141 12.2052C30.3483 11.9249 30.8422 11.7251 31.4102 11.6051C31.9783 11.4851 32.5729 11.4246 33.1868 11.4246C33.4745 11.4246 33.775 11.4448 34.0957 11.4778C34.4099 11.5117 34.7508 11.5721 35.1118 11.6582V11.2313C35.1118 10.9317 35.0779 10.6449 35.0046 10.3783C34.9341 10.1155 34.8061 9.87175 34.6298 9.66456C34.4493 9.45749 34.2166 9.29715 33.9225 9.18446C33.6284 9.07085 33.2537 8.98381 32.8066 8.98381C32.2055 8.98381 31.6576 9.0571 31.1565 9.14415C30.6553 9.23027 30.2412 9.33105 29.9269 9.44375L29.6135 7.30346C29.9406 7.18985 30.4281 7.07624 31.0566 6.96355C31.6842 6.84261 32.3594 6.78947 33.0805 6.78947H33.0807ZM84.6656 16.1871C85.4673 16.1871 86.061 16.1404 86.4751 16.0598V13.4064C86.3285 13.3661 86.1214 13.3193 85.8475 13.279C85.5466 13.2345 85.2428 13.2121 84.9386 13.2122C84.6518 13.2122 84.3577 13.2323 84.0636 13.279C83.7704 13.3193 83.5029 13.3991 83.2693 13.5127C83.0347 13.6263 82.8414 13.7866 82.7012 13.9928C82.5537 14.1998 82.4877 14.3199 82.4877 14.6332C82.4877 15.2462 82.7012 15.6007 83.0888 15.8335C83.4827 16.0735 84.0041 16.1871 84.6656 16.1871ZM84.4448 6.7235C85.306 6.7235 86.0342 6.82978 86.6224 7.04326C87.2097 7.25674 87.6843 7.55634 88.0316 7.93657C88.3788 8.3168 88.6262 8.83721 88.7728 9.3842C88.9267 9.93118 89 10.5313 89 11.1919V17.9014C88.5996 17.9875 87.9913 18.0873 87.1767 18.2083C86.3622 18.3283 85.4469 18.3879 84.4308 18.3879C83.7565 18.3879 83.1353 18.321 82.5812 18.1945C82.0195 18.0681 81.5459 17.861 81.1445 17.5743C80.7506 17.2875 80.4436 16.9201 80.2164 16.4675C79.9956 16.0139 79.882 15.3735 79.882 14.7065C79.882 14.0661 80.0093 13.6593 80.2567 13.2186C80.5096 12.7788 80.8504 12.4187 81.2783 12.1383C81.7126 11.8589 82.2064 11.6582 82.7745 11.5382C83.3425 11.4182 83.9372 11.3586 84.552 11.3586C84.8387 11.3586 85.1393 11.3788 85.4599 11.4118C85.7806 11.4448 86.115 11.5052 86.4751 11.5923V11.1653C86.4751 10.8648 86.4421 10.578 86.3688 10.3114C86.2986 10.0486 86.1705 9.80474 85.9941 9.59767C85.8136 9.39061 85.5809 9.23027 85.2868 9.11758C84.9925 9.00397 84.6179 8.91784 84.1708 8.91784C83.5698 8.91784 83.0219 8.99114 82.5207 9.07726C82.0195 9.1643 81.6054 9.26417 81.2911 9.37778L80.9778 7.23658C81.3049 7.12297 81.7923 7.01027 82.4208 6.89666C83.0484 6.78305 83.7228 6.7235 84.4448 6.7235ZM76.6019 5.48294C77.4767 5.48294 78.1925 4.77562 78.1925 3.90155C78.1925 3.02839 77.4841 2.32107 76.6019 2.32107C75.7205 2.32107 75.0123 3.02839 75.0123 3.90155C75.0123 4.77562 75.7269 5.48294 76.6019 5.48294ZM77.9176 18.3879H75.2925V7.12938L77.9174 6.71617V18.3879H77.9176ZM73.3153 18.3879C69.0338 18.408 69.0338 14.9328 69.0338 14.3794L69.0265 1.36088L71.6386 0.946747V13.8856C71.6386 14.1998 71.6386 16.1871 73.3153 16.1935V18.3879ZM64.8247 12.6258C64.8247 11.4979 64.5773 10.5579 64.0965 9.90461C63.6155 9.24401 62.9411 8.91784 62.079 8.91784C61.2177 8.91784 60.5423 9.24401 60.0622 9.90461C59.5812 10.5643 59.3468 11.4979 59.3468 12.6258C59.3468 13.7665 59.5878 14.5324 60.0688 15.193C60.5498 15.86 61.2241 16.1871 62.0863 16.1871C62.9476 16.1871 63.6228 15.8536 64.1038 15.193C64.5846 14.526 64.8247 13.7665 64.8247 12.6258ZM67.4964 12.6194C67.4964 13.4998 67.3699 14.1659 67.109 14.8934C66.8488 15.62 66.4814 16.2403 66.0077 16.7542C65.5331 17.2673 64.9651 17.6677 64.297 17.9481C63.6292 18.2275 62.6001 18.3879 62.0861 18.3879C61.5712 18.3815 60.5496 18.2349 59.8881 17.9481C59.2266 17.6613 58.6586 17.2673 58.1849 16.7542C57.7103 16.2403 57.3431 15.62 57.0755 14.8934C56.8087 14.1659 56.6751 13.4998 56.6751 12.6194C56.6751 11.7389 56.795 10.8914 57.0625 10.1712C57.33 9.45108 57.7039 8.83721 58.1849 8.32413C58.6659 7.81013 59.2404 7.41616 59.8945 7.13671C60.556 6.85635 61.2844 6.7235 62.0724 6.7235C62.8612 6.7235 63.5887 6.86276 64.2566 7.13671C64.9255 7.41616 65.5001 7.81013 65.9674 8.32413C66.4409 8.83721 66.8085 9.45108 67.076 10.1712C67.3564 10.8914 67.4966 11.7389 67.4966 12.6194H67.4964ZM47.8373 12.6194C47.8373 13.7124 48.0773 14.9264 48.5584 15.4331C49.0394 15.9406 49.6604 16.1935 50.4229 16.1935C50.837 16.1935 51.231 16.134 51.5982 16.0204C51.9656 15.9067 52.259 15.773 52.4935 15.6136V9.13773C52.3066 9.09742 51.5249 8.93708 50.7692 8.91784C49.8209 8.89035 49.0998 9.27791 48.5923 9.89728C48.0909 10.5185 47.8373 11.6051 47.8373 12.6194ZM55.0983 17.7676C55.0983 19.5487 54.6439 20.8488 53.7284 21.6762C52.814 22.5026 51.4177 22.9167 49.5339 22.9167C48.8459 22.9167 47.4166 22.783 46.274 22.5301L46.6946 20.4622C47.6502 20.6619 48.9127 20.716 49.5743 20.716C50.6224 20.716 51.371 20.5025 51.8181 20.0755C52.2661 19.6486 52.486 19.0155 52.486 18.1744V17.7474C52.2258 17.8739 51.885 18.0012 51.4644 18.135C51.0439 18.2614 50.5564 18.3283 50.0076 18.3283C49.2866 18.3283 48.6315 18.2147 48.0378 17.9875C47.4431 17.7612 46.9282 17.4277 46.5077 16.987C46.0871 16.5472 45.7527 15.9938 45.5191 15.3332C45.2854 14.6726 45.1645 13.4925 45.1645 12.6258C45.1645 11.8122 45.2919 10.7915 45.5394 10.1108C45.793 9.43092 46.1533 8.84363 46.6414 8.35711C47.1226 7.8706 47.7107 7.49679 48.3987 7.22284C49.0868 6.9498 49.894 6.77664 50.769 6.77664C51.6183 6.77664 52.3999 6.88292 53.1613 7.01028C53.9226 7.13671 54.5704 7.26956 55.0981 7.41616V17.7676H55.0983Z" fill="white"/>
</svg>
