<svg width="22" height="22" viewBox="0 0 22 22" fill="none" xmlns="http://www.w3.org/2000/svg">
<path fill-rule="evenodd" clip-rule="evenodd" d="M20.6528 1.3472C20.9213 1.61568 20.9213 2.05098 20.6528 2.31947L10.5695 12.4028C10.301 12.6713 9.86569 12.6713 9.59721 12.4028C9.32872 12.1343 9.32872 11.699 9.59721 11.4305L19.6805 1.3472C19.949 1.07871 20.3843 1.07871 20.6528 1.3472Z" fill="white"/>
<path fill-rule="evenodd" clip-rule="evenodd" d="M20.6528 1.3472C20.8396 1.53395 20.9028 1.81117 20.8156 2.06045L14.3989 20.3938C14.3058 20.6598 14.0597 20.8421 13.778 20.8536C13.4964 20.8651 13.2363 20.7035 13.1218 20.4459L9.56249 12.4375L1.55413 8.87824C1.29653 8.76376 1.13493 8.50363 1.14642 8.22197C1.15791 7.94032 1.34017 7.69422 1.60623 7.6011L19.9396 1.18443C20.1888 1.09718 20.4661 1.16045 20.6528 1.3472ZM3.69721 8.32604L10.3626 11.2884C10.5181 11.3575 10.6425 11.4819 10.7116 11.6374L13.674 18.3028L19.0461 2.95394L3.69721 8.32604Z" fill="white"/>
</svg>
