<svg xmlns="http://www.w3.org/2000/svg" width="32" height="26" viewBox="0 0 32 26"><defs><linearGradient x1="50%" y1="-227.852%" x2="50%" y2="100%" id="a"><stop stop-color="#8995C7" offset="0%"/><stop stop-color="#F1F4FD" offset="100%"/></linearGradient></defs><g fill="none" fill-rule="evenodd"><g transform="translate(0 6.5)"><path d="M19.551 6.603v12.39c0 1.152-1.436.159-4.308-2.979H2.784A2.509 2.509 0 0 1 .27 13.513V2.672A2.508 2.508 0 0 1 2.784.17h10.344l6.423 6.432z" fill="#8995C7"/><ellipse fill="#FFF" fill-rule="nonzero" opacity=".8" cx="5.846" cy="8.091" rx="1" ry="1"/><ellipse fill="#FFF" fill-rule="nonzero" opacity=".8" cx="8.771" cy="8.091" rx="1" ry="1"/></g><path d="M32 2.604a2.508 2.508 0 0 0-2.515-2.5H15.233a2.508 2.508 0 0 0-2.515 2.5v16.322c0 1.151 1.436.158 4.308-2.98h12.459A2.51 2.51 0 0 0 32 13.446V2.605z" fill="url(#a)"/><path d="M22.327 4.551c1.334 0 2.647.609 2.647 2.064 0 1.341-1.552 1.857-1.886 2.342-.25.36-.167.867-.855.867-.448 0-.667-.36-.667-.69 0-1.23 1.823-1.507 1.823-2.519 0-.557-.374-.888-1-.888-1.333.001-.812 1.362-1.822 1.362-.366 0-.678-.216-.678-.63 0-1.011 1.166-1.908 2.438-1.908zm-.052 5.944c.468 0 .855.382.855.846a.854.854 0 0 1-.855.846.854.854 0 0 1-.855-.846c0-.465.386-.846.855-.846z" fill="#8995C7" fill-rule="nonzero"/></g></svg>